<svg xmlns="http://www.w3.org/2000/svg" xmlns:xlink="http://www.w3.org/1999/xlink" version="1.1" id="Layer_1" x="0px" y="0px" style="enable-background:new 0 0 1600 1600;" xml:space="preserve" viewBox="360.09 559.78 879.81 480.45">
<style type="text/css">
	.st0{fill:#286CF4;}
</style>
<g>
	<path d="M1191.89,714.18c-59.07-42.95-119.13-84.54-178.56-126.98c-35.54-25.38-75.43-33.3-116.76-23.09   c-44.74,11.06-74.96,35.93-92.85,71.81c14.13,49.28,23.75,102.57,30.3,152.62c5.44-30.94,10.88-61.88,16.26-92.83   c10.2-58.61,73.79-90.65,122.41-58.62c62.58,41.23,123.37,85.24,184,129.34c27.38,19.91,25.55,56.58-1.69,77.26   c-10.09,7.66-20.46,14.94-30.65,22.47c-44.26,32.7-88.13,65.94-133.03,97.74c-9.55,6.76-22.88,11.61-34.33,11.37   c-13.4-0.28-21.94-11.97-24.86-25.37c-2.91-13.36,3.23-23.71,13.57-31.64c41.34-31.72,82.88-63.17,124.12-95.01   c19-14.68,18.54-24.39-1.18-38.35c-37.76-26.73-75.53-53.42-113.44-79.93c-16.48-11.53-37.35-9.27-47.03,4.57   c-11.13,15.9-6.99,34.05,10.72,46.64c22.17,15.77,44.39,31.47,68.67,48.68c-5.18,4.59-8.58,7.96-12.35,10.88   c-23.1,17.89-46.37,35.57-69.43,53.52c-41.77,32.52-50.72,90.67-20.38,131.46c32.1,43.16,89.48,52.42,133.71,20.56   c58.47-42.12,116.77-84.49,174.39-127.76C1256.02,846.57,1255.24,760.24,1191.89,714.18z"/>
	<path class="st0" d="M787.25,688.43c-12.59,74.34-25.65,148.61-39.88,222.64c-10.51,54.72-74.75,81.94-121.23,50.74   c-60.61-40.7-120.12-83.08-179.33-125.79c-30.9-22.29-30.49-57.54-0.2-80.81c27.42-21.05,55.51-41.23,83.37-61.7   c29.43-21.61,58.74-43.4,88.54-64.5c11.3-8,23.92-7.65,35.6,0.14c12.49,8.33,17.25,21.14,12.36,34.43   c-3.26,8.85-11.09,17.02-18.79,23.06c-39.47,30.96-79.62,61.04-119.39,91.61c-15.4,11.83-15.07,23.64,0.84,34.96   c38.49,27.38,77.02,54.72,115.72,81.8c18.03,12.62,37.32,10.11,47.75-5.49c9.79-14.64,5.2-34.05-11.25-45.86   c-15.03-10.79-30.41-21.1-45.51-31.8c-7.37-5.22-14.47-10.84-23.36-17.53c7.43-6.11,12.82-10.78,18.46-15.14   c22.34-17.29,45.2-33.95,67.04-51.84c30.89-25.3,42.48-68.65,29.03-104.25c-23.63-62.52-95.13-82.34-150.44-41.63   c-55.7,40.99-111.36,82.02-166.99,123.09c-66.24,48.89-66.02,136.2,0.8,183.82c57.09,40.69,114.71,80.63,171.89,121.2   c36.34,25.78,75.31,36.34,119.95,26.76c51.69-11.1,97.82-56.07,107.03-107.78c3.99-22.44,7.96-44.9,11.93-67.34   c-7.59-82.79-18.83-145.13-30.08-190.98C789.6,676.09,788.31,682.16,787.25,688.43z"/>
</g>
</svg>